<svg width="1440" height="577" viewBox="0 0 1440 577" fill="none" xmlns="http://www.w3.org/2000/svg">
<path d="M1743.27 239.925L719.983 1.00006M1744 263.717L720 1.00003M720 1.00003L1744 293.206M720 1.00003L1744 330.066M720 1.00003L1744 376.98M720 1.00003L1744 439.979M720 1.00003L1744 528.445M720 1.00003L-304 220.154M720 1.00003L-304 263.717M720 1.00003L-304 293.206M720 1.00003L-304 330.067M720 1.00003L-304 376.98M720 1.00003L-304 439.979M720 1.00003L-304 528.445M1613.54 577.369L720.018 1M1386.59 577.369L719.998 1M1161.08 577.369L719.997 1M935.564 577.369L719.985 1M711.492 577.369L720.002 1M-303.297 239.925L719.994 1.00006M719.994 1.00006L-173.524 577.369M719.994 1.00006L53.4017 577.369M278.925 577.369L720.011 1M504.413 577.369L719.992 1M1744 506.998H-298.327M1744 451.372H-298.327M1744 405.799L-298.327 405.799M1744 369.608H-298.327M1744 338.779L-298.327 338.779M1744 313.311H-298.327M1744 291.195H-298.327M1744 271.759H-298.327M1744 254.334H-298.327M1744 239.59H-298.327M1744 226.856H-298.327M1744 214.793H-298.327" stroke="url(#paint0_linear_3963_3082)" stroke-dasharray="1 20"/>
<defs>
<linearGradient id="paint0_linear_3963_3082" x1="720" y1="231" x2="720" y2="577.369" gradientUnits="userSpaceOnUse">
<stop stop-color="white" stop-opacity="0"/>
<stop offset="1" stop-color="white"/>
</linearGradient>
</defs>
</svg>
